<?xml version="1.0" standalone="no"?>
<!DOCTYPE svg PUBLIC "-//W3C//DTD SVG 20010904//EN"
 "http://www.w3.org/TR/2001/REC-SVG-20010904/DTD/svg10.dtd">
<svg version="1.0" xmlns="http://www.w3.org/2000/svg"
 width="183.000000pt" height="52.000000pt" viewBox="0 0 183.000000 52.000000"
 preserveAspectRatio="xMidYMid meet">
<metadata>
Created by potrace 1.15, written by Peter Selinger 2001-2017
</metadata>
<g transform="translate(0.000000,52.000000) scale(0.100000,-0.100000)"
fill="#000000" stroke="none">
<path d="M254 362 c-47 -49 -49 -159 -4 -207 13 -14 42 -32 66 -41 38 -14 47
-15 86 -2 24 8 41 17 38 20 -3 3 2 13 10 23 12 14 8 14 -20 -4 -43 -26 -74
-27 -119 -3 -43 22 -72 90 -59 139 13 50 61 91 111 96 24 2 14 3 -23 3 -54 -1
-69 -4 -86 -24z"/>
</g>
</svg>